<?xml version="1.0" encoding="UTF-8"?>
<svg width="391.48" height="367.73" version="1.1" viewBox="0 0 391.48 367.73" xml:space="preserve" xmlns="http://www.w3.org/2000/svg" xmlns:cc="http://creativecommons.org/ns#" xmlns:dc="http://purl.org/dc/elements/1.1/" xmlns:rdf="http://www.w3.org/1999/02/22-rdf-syntax-ns#"><metadata><rdf:RDF><cc:Work rdf:about=""><dc:format>image/svg+xml</dc:format><dc:type rdf:resource="http://purl.org/dc/dcmitype/StillImage"/><dc:title/></cc:Work></rdf:RDF></metadata>
<style type="text/css">
	.st0{fill:#FFFFFF;}
</style>
<path class="st0" d="m372.68 106.6-154.58-100c-13.6-8.8-31.11-8.8-44.71 0l-154.59 100c-11.72 7.58-18.8 20.6-18.8 34.56v185.41c0 22.73 18.43 41.16 41.16 41.16h309.16c22.73 0 41.16-18.43 41.16-41.16v-185.42c0-13.96-7.08-26.97-18.8-34.55zm-226.79 163.38-88.63 71.18c-2.77 2.22-6.09 3.31-9.38 3.31-4.39 0-8.74-1.92-11.7-5.61-5.19-6.46-4.16-15.9 2.3-21.09l88.63-71.18c6.46-5.19 15.9-4.16 21.09 2.3 5.18 6.46 4.15 15.91-2.31 21.09zm38.11-32.19-122.57-79.29c-18.07-11.69-9.79-39.74 11.73-39.74h245.15c21.53 0 29.81 28.05 11.73 39.74l-122.58 79.29c-7.14 4.62-16.32 4.62-23.46 0zm170.73 101.07c-2.96 3.69-7.31 5.61-11.71 5.61-3.3 0-6.61-1.08-9.38-3.31l-88.63-71.18c-6.46-5.19-7.49-14.63-2.3-21.09s14.63-7.49 21.09-2.3l88.63 71.18c6.46 5.19 7.49 14.63 2.3 21.09z"/>
</svg>
