<?xml version="1.0" encoding="UTF-8"?>
<svg width="349.4" height="349.67" version="1.1" viewBox="0 0 349.4 349.67" xml:space="preserve" xmlns="http://www.w3.org/2000/svg" xmlns:cc="http://creativecommons.org/ns#" xmlns:dc="http://purl.org/dc/elements/1.1/" xmlns:rdf="http://www.w3.org/1999/02/22-rdf-syntax-ns#"><metadata><rdf:RDF><cc:Work rdf:about=""><dc:format>image/svg+xml</dc:format><dc:type rdf:resource="http://purl.org/dc/dcmitype/StillImage"/><dc:title/></cc:Work></rdf:RDF></metadata>
<style type="text/css">
	.st0{fill:#FFFFFF;}
</style>
<g transform="translate(-81.299 -81.164)">
	
		
			
				<path class="st0" d="m412.93 331.8-44.52-24c-10.84-5.84-19.27-1.62-28.6 11.23-20.5 28.2-30.44 33.78-55.6 19.73-23.47-13.1-40.28-28.67-61.36-49.75s-36.64-37.89-49.75-61.36c-14.04-25.15-8.47-35.1 19.73-55.59 12.85-9.34 17.07-17.76 11.23-28.6l-24-44.52c-9.81-18.94-23.71-21.1-44.28-14.14-28.37 9.6-55.82 50.57-54.43 70.01 4.07 56.81 32.51 125.07 91.71 184.26 59.19 59.2 127.45 87.64 184.27 91.71 19.44 1.39 60.14-26.33 69.74-54.7 6.96-20.56 4.79-34.47-14.14-44.28z"/>
				<path class="st0" d="m279.74 160.35c-9.39 0.08-16.93 7.75-16.85 17.13 0.08 9.34 7.67 16.85 16.99 16.85 0.16-0.01 0.32 0 0.46 0 10.11 0 19.58 3.9 26.7 11.02 7.19 7.19 11.1 16.79 11.02 27.01-0.08 9.38 7.47 17.05 16.85 17.13h0.14c9.31 0 16.91-7.52 16.99-16.85 0.16-19.41-7.29-37.63-20.97-51.32-13.69-13.68-32.19-20.85-51.33-20.97zm101.43-29.14c-27.06-27.07-63.52-41.95-101.35-41.75-9.39 0.03-16.96 7.67-16.93 17.05 0.03 9.36 7.63 16.93 16.99 16.93 0.11-0.02 0.3-0.01 0.46 0 29.02 0 56.29 11.28 76.8 31.8 20.6 20.6 31.9 48.02 31.8 77.2-0.03 9.39 7.55 17.02 16.93 17.05h0.06c9.36 0 16.96-7.57 16.99-16.93 0.13-38.31-14.69-74.3-41.75-101.35z"/>
			
		
	
</g>
</svg>
